<svg width="80" height="80" viewBox="0 0 80 80" fill="none" xmlns="http://www.w3.org/2000/svg">
<path d="M10.5667 24.7998L39.9999 41.8331L69.2332 24.8997" stroke="#2DD06E" stroke-width="2" stroke-linecap="round" stroke-linejoin="round"/>
<path d="M40 72.0332V41.7998" stroke="#2DD06E" stroke-width="2" stroke-linecap="round" stroke-linejoin="round"/>
<path d="M7.96667 30.5666C7.96667 25.9666 11.2666 20.3666 15.2999 18.1333L33.0999 8.2332C36.8999 6.1332 43.1332 6.1332 46.9332 8.2332L64.7333 18.1333C68.7667 20.3666 72.0666 25.9666 72.0666 30.5666V49.4C72.0666 54 68.7667 59.5999 64.7333 61.8333L46.9332 71.7334C43.1332 73.8334 36.8999 73.8334 33.0999 71.7334L15.2999 61.8333C11.2666 59.5999 7.96667 54 7.96667 49.4V46.6666" stroke="#2DD06E" stroke-width="2" stroke-linecap="round" stroke-linejoin="round"/>
<path d="M56.6666 44.1332V31.9333L36.4333 20.2333L32.9333 18.2332L25.0333 13.6665" stroke="#2DD06E" stroke-width="2" stroke-linecap="round" stroke-linejoin="round"/>
</svg>
