<svg width="80" height="80" viewBox="0 0 80 80" fill="none" xmlns="http://www.w3.org/2000/svg">
<path d="M54.1666 11.4668C59.7333 15.7334 63.3333 22.4334 63.3333 30.0001C63.3333 34.8334 61.9 39.2668 59.4333 42.9668C55.8333 48.3001 50.1333 52.0668 43.5 53.0334C42.3666 53.2334 41.2 53.3334 40 53.3334C38.8 53.3334 37.6333 53.2334 36.5 53.0334C29.8666 52.0668 24.1666 48.3001 20.5666 42.9668C18.1 39.2668 16.6666 34.8334 16.6666 30.0001C16.6666 17.1001 27.1 6.66675 40 6.66675" stroke="#2DD06E" stroke-width="2" stroke-linecap="round" stroke-linejoin="round"/>
<path d="M70.8333 61.5667L65.3333 62.8666C64.1 63.1666 63.1333 64.1 62.8666 65.3334L61.7 70.2334C61.0666 72.9 57.6666 73.7001 55.9 71.6001L40 53.3334L24.1 71.6333C22.3333 73.7333 18.9333 72.9333 18.3 70.2666L17.1333 65.3666C16.8333 64.1333 15.8666 63.1667 14.6666 62.9L9.16664 61.6001C6.63331 61.0001 5.73331 57.8333 7.56664 56L20.5666 43C24.1666 48.3333 29.8666 52.1001 36.5 53.0667C37.6333 53.2667 38.8 53.3667 40 53.3667C41.2 53.3667 42.3666 53.2667 43.5 53.0667C50.1333 52.1001 55.8333 48.3333 59.4333 43L72.4333 56C74.2666 57.8 73.3666 60.9667 70.8333 61.5667Z" stroke="#2DD06E" stroke-width="2" stroke-linecap="round" stroke-linejoin="round"/>
<path d="M41.9333 19.9333L43.9 23.8666C44.1667 24.3999 44.8667 24.9332 45.5 25.0332L49.0667 25.6332C51.3333 25.9999 51.8667 27.6666 50.2333 29.2999L47.4667 32.0665C47 32.5332 46.7333 33.4333 46.9 34.0999L47.7 37.5332C48.3333 40.2332 46.9 41.2999 44.5 39.8665L41.1667 37.8999C40.5667 37.5332 39.5667 37.5332 38.9667 37.8999L35.6333 39.8665C33.2333 41.2665 31.8 40.2332 32.4333 37.5332L33.2333 34.0999C33.3667 33.4666 33.1333 32.5332 32.6667 32.0665L29.9 29.2999C28.2667 27.6666 28.8 26.0332 31.0667 25.6332L34.6333 25.0332C35.2333 24.9332 35.9333 24.3999 36.2 23.8666L38.1667 19.9333C39.1333 17.7999 40.8667 17.7999 41.9333 19.9333Z" stroke="#2DD06E" stroke-width="2" stroke-linecap="round" stroke-linejoin="round"/>
</svg>
