<svg width="20" height="20" viewBox="0 0 20 20" fill="none" xmlns="http://www.w3.org/2000/svg">
<g opacity="0.8">
<path d="M14.5455 0.909119H5.45463C2.94425 0.909119 0.90918 2.94419 0.90918 5.45457V14.5455C0.90918 17.0559 2.94425 19.0909 5.45463 19.0909H14.5455C17.0559 19.0909 19.091 17.0559 19.091 14.5455V5.45457C19.091 2.94419 17.0559 0.909119 14.5455 0.909119Z" stroke="white" stroke-width="1.5" stroke-linecap="round" stroke-linejoin="round"/>
<path d="M13.6362 9.42725C13.7484 10.1838 13.6192 10.9565 13.2669 11.6354C12.9146 12.3144 12.3573 12.8649 11.6741 13.2088C10.9909 13.5526 10.2166 13.6723 9.46149 13.5508C8.70634 13.4293 8.00874 13.0728 7.4679 12.5319C6.92706 11.9911 6.57053 11.2935 6.44902 10.5384C6.32751 9.78321 6.4472 9.00897 6.79107 8.32577C7.13495 7.64257 7.68549 7.0852 8.3644 6.73293C9.04331 6.38065 9.81601 6.25142 10.5726 6.36362C11.3443 6.47806 12.0588 6.83767 12.6105 7.38935C13.1622 7.94103 13.5218 8.6555 13.6362 9.42725Z" stroke="white" stroke-width="1.5" stroke-linecap="round" stroke-linejoin="round"/>
<path d="M15 5H15.01" stroke="white" stroke-width="1.5" stroke-linecap="round" stroke-linejoin="round"/>
</g>
</svg>
