<svg width="20" height="17" viewBox="0 0 20 17" fill="none" xmlns="http://www.w3.org/2000/svg">
<g opacity="0.8">
<path d="M19.1666 0.849978C18.3686 1.42413 17.485 1.86327 16.5499 2.15048C16.048 1.56186 15.381 1.14467 14.6391 0.955315C13.8972 0.765964 13.1162 0.813594 12.4017 1.09176C11.6871 1.36993 11.0736 1.86522 10.6441 2.51064C10.2145 3.15606 9.98967 3.92046 9.99992 4.70048V5.55048C8.53545 5.58921 7.08431 5.25792 5.77576 4.58611C4.4672 3.9143 3.34185 2.92282 2.49992 1.69998C2.49992 1.69998 -0.833415 9.34998 6.66658 12.75C4.95036 13.9382 2.90588 14.5341 0.833252 14.45C8.33325 18.7 17.4999 14.45 17.4999 4.67498C17.4991 4.43821 17.4768 4.20203 17.4333 3.96948C18.2838 3.11395 18.8839 2.03378 19.1666 0.849978V0.849978Z" stroke="white" stroke-width="1.5" stroke-linecap="round" stroke-linejoin="round"/>
</g>
</svg>
