<svg width="24" height="24" viewBox="0 0 24 24" fill="none" xmlns="http://www.w3.org/2000/svg">
<path d="M12.5986 5.72768L12.5606 4L11.3651 4.61778L11.3306 5.73493C6.67287 6.19517 3 11.4119 3 17.7837C3 18.1942 3.01514 18.5996 3.04541 19H4.67649C4.66119 18.7072 4.65112 18.412 4.65112 18.1134C4.65112 12.3339 7.56783 7.59029 11.2893 7.08269L10.956 17.9382L12.8485 17.0116L12.6285 7.08482C16.342 7.60411 19.2504 12.3425 19.2504 18.1136C19.2504 18.4122 19.2405 18.7073 19.2251 19.0002H20.9549C20.9848 18.6002 20.9998 18.1948 21.0001 17.7839C20.9999 11.3796 17.2902 6.14163 12.5986 5.72768Z" fill="#DB2C66"/>
</svg>
