<svg width="18" height="15" viewBox="0 0 18 15" fill="none" xmlns="http://www.w3.org/2000/svg">
<path d="M9.59864 1.7277L9.56064 1.52588e-05L8.36507 0.617791L8.33058 1.73495C3.67287 2.19519 0 7.41187 0 13.7837C0 14.1942 0.0151377 14.5996 0.0454132 15H1.67649C1.66119 14.7072 1.65112 14.412 1.65112 14.1135C1.65112 8.3339 4.56783 3.5903 8.28925 3.08271L7.95597 13.9382L9.84851 13.0116L9.62847 3.08483C13.342 3.60412 16.2504 8.3425 16.2504 14.1137C16.2504 14.4122 16.2405 14.7074 16.2251 15.0002H17.9549C17.9848 14.6002 17.9998 14.1948 18.0001 13.7839C17.9999 7.37959 14.2902 2.14164 9.59864 1.7277Z" fill="#333333"/>
</svg>
