<svg width="20" height="20" viewBox="0 0 20 20" fill="none" xmlns="http://www.w3.org/2000/svg">
<path d="M7.50002 19.5C6.60002 19.5 5.90002 18.8 5.90002 17.9C5.90002 17 6.60002 16.3 7.50002 16.3C8.40002 16.3 9.10002 17 9.10002 17.9C9.10002 18.8 8.40002 19.5 7.50002 19.5ZM7.50002 17.8C7.50002 18 7.60002 18 7.50002 17.8C7.60002 17.8 7.60002 17.8 7.50002 17.8Z" fill="#1D2123"/>
<path d="M16.8 19.5C15.9 19.5 15.2 18.8 15.2 17.9C15.2 17 15.9 16.3 16.8 16.3C17.7 16.3 18.4 17 18.4 17.9C18.4 18.8 17.7 19.5 16.8 19.5ZM16.8 17.8C16.7 17.8 16.7 17.8 16.8 17.8C16.7 18 16.9 18 16.8 17.8C16.8 17.8 16.9 17.8 16.8 17.8Z" fill="#1D2123"/>
<path d="M8.1 14.4C7.6 14.4 7 14.2 6.6 13.9C6.2 13.5 5.9 13 5.7 12.5L4.3 5.3V5.2L3.6 1.6H0.8C0.4 1.6 0 1.3 0 0.8C0 0.3 0.3 0 0.8 0H4.2C4.6 0 4.9 0.3 4.9 0.6L5.6 4.2H19.2C19.4 4.2 19.6 4.3 19.8 4.5C19.9 4.7 20 4.9 20 5.1L18.7 12.4C18.6 13 18.3 13.5 17.8 13.8C17.4 14.2 16.8 14.3 16.2 14.3H8.1C8.1 14.4 8.1 14.4 8.1 14.4ZM5.9 5.9L7.1 12.1C7.1 12.3 7.3 12.5 7.4 12.7C7.6 12.8 7.8 12.9 8 12.9H16.2C16.4 12.9 16.6 12.8 16.8 12.7C17 12.6 17.1 12.4 17.1 12.1L18.3 5.9H5.9Z" fill="#1D2123"/>
</svg>
