<svg width="10" height="16" viewBox="0 0 10 16" fill="none" xmlns="http://www.w3.org/2000/svg">
<path fill-rule="evenodd" clip-rule="evenodd" d="M9.16667 0.916667C9.16667 0.686667 8.97917 0.5 8.75 0.5H6.66667C4.365 0.5 2.5 2.17917 2.5 4.25V6.5H0.416667C0.186667 6.5 0 6.68667 0 6.91667V9.08333C0 9.31333 0.186667 9.5 0.416667 9.5H2.5V15.0833C2.5 15.3133 2.68667 15.5 2.91667 15.5H5.41667C5.64583 15.5 5.83333 15.3133 5.83333 15.0833V9.5H8.01583C8.20333 9.5 8.3675 9.375 8.41833 9.195L9.01917 7.02833C9.09333 6.76333 8.89333 6.5 8.61833 6.5H5.83333V4.25C5.83333 3.83583 6.20583 3.5 6.66667 3.5H8.75C8.97917 3.5 9.16667 3.31333 9.16667 3.08333V0.916667Z" fill="white"/>
</svg>
