<svg width="18" height="18" viewBox="0 0 18 18" fill="none" xmlns="http://www.w3.org/2000/svg">
<path fill-rule="evenodd" clip-rule="evenodd" d="M13.5786 10.6503C13.0236 12.4353 11.6403 13.6712 9.79948 13.9437C6.99031 14.3595 4.23198 12.2295 4.01364 9.39616C3.78698 6.45616 6.10614 4.00033 9.00031 4.00033C9.66948 4.00033 10.3078 4.13199 10.8911 4.37032C11.0936 4.45282 11.3228 4.38199 11.4261 4.19033L12.622 1.98449C12.7353 1.77366 12.6536 1.50199 12.4353 1.40366C11.3878 0.930325 10.2261 0.666992 9.00281 0.666992C4.31781 0.666992 0.535311 4.53033 0.669478 9.24449C0.791978 13.5453 4.34198 17.1437 8.63948 17.3262C13.2611 17.5212 17.0945 13.9545 17.327 9.43532C17.3361 9.27032 17.3328 8.30949 17.3295 7.74616C17.3286 7.51616 17.142 7.33366 16.9128 7.33366H9.41364C9.18364 7.33366 8.99698 7.51949 8.99698 7.75032V10.2337C8.99698 10.4628 9.18364 10.6503 9.41364 10.6503H13.5786" fill="white"/>
</svg>
