<svg width="20" height="20" viewBox="0 0 20 20" fill="none" xmlns="http://www.w3.org/2000/svg">
<path d="M10.4989 4.77306L10.4672 3.33333L9.47089 3.84814L9.44215 4.77911C5.56073 5.16264 2.5 9.50988 2.5 14.8197C2.5 15.1618 2.51261 15.4997 2.53784 15.8333H3.89708C3.88433 15.5893 3.87594 15.3433 3.87594 15.0945C3.87594 10.2782 6.30653 6.32524 9.40771 5.90224L9.12998 14.9485L10.7071 14.1763L10.5237 5.90401C13.6183 6.33675 16.042 10.2854 16.042 15.0947C16.042 15.3435 16.0337 15.5895 16.0209 15.8335H17.4624C17.4873 15.5002 17.4999 15.1623 17.5001 14.8199C17.4999 9.48298 14.4085 5.11802 10.4989 4.77306Z" fill="#4F4F4F"/>
</svg>
