<svg width="20" height="18" viewBox="0 0 20 18" fill="none" xmlns="http://www.w3.org/2000/svg">
<path d="M10 17.8C9.8 17.8 9.6 17.7 9.4 17.6L1.6 9.7C0.5 8.6 0 7.2 0 5.7C0 4.2 0.6 2.8 1.6 1.7C2.6 0.6 4.1 0 5.6 0C7.1 0 8.5 0.6 9.6 1.7L10 2.1L10.4 1.7C10.9 1.2 11.5 0.8 12.2 0.5C13.6 -0.1 15.1 -0.1 16.5 0.5C17.2 0.8 17.8 1.2 18.3 1.7C18.8 2.2 19.2 2.8 19.5 3.5C19.8 4.2 19.9 4.9 19.9 5.7C19.9 6.4 19.8 7.2 19.5 7.9C19.2 8.6 18.8 9.2 18.3 9.7L10.5 17.6C10.4 17.7 10.2 17.8 10 17.8ZM5.6 1.6C4.5 1.6 3.5 2 2.7 2.8C2 3.5 1.6 4.6 1.6 5.7C1.6 6.8 2 7.8 2.8 8.6L10 15.9L17.2 8.6C17.6 8.2 17.9 7.8 18.1 7.3C18.3 6.8 18.4 6.3 18.4 5.7C18.4 5.1 18.3 4.6 18.1 4.1C17.9 3.6 17.6 3.2 17.2 2.8C16.8 2.4 16.4 2.1 15.9 1.9C14.9 1.5 13.8 1.5 12.8 1.9C12.3 2.1 11.9 2.4 11.5 2.8L10.6 3.7C10.3 4 9.8 4 9.5 3.7L8.5 2.8C7.7 2 6.7 1.6 5.6 1.6Z" fill="#1D2123"/>
</svg>
