<svg width="18" height="20" viewBox="0 0 18 20" fill="none" xmlns="http://www.w3.org/2000/svg">
<path d="M17.3 20C16.9 20 16.5 19.7 16.5 19.2V17.1C16.5 16.2 16.1 15.4 15.5 14.7C14.9 14 14 13.7 13.1 13.7H5C4.1 13.7 3.3 14 2.6 14.7C2 15.3 1.6 16.2 1.6 17.1V19.2C1.6 19.6 1.3 20 0.8 20C0.3 20 0 19.7 0 19.2V17.1C0 15.8 0.5 14.6 1.4 13.7C2.3 12.8 3.5 12.3 4.8 12.3H13C14.3 12.3 15.5 12.8 16.4 13.7C17.3 14.6 17.8 15.9 17.8 17.1V19.2C18.1 19.7 17.8 20 17.3 20Z" fill="#1D2123"/>
<path d="M9.10001 9.8C6.40001 9.8 4.20001 7.6 4.20001 4.9C4.20001 2.2 6.40001 0 9.10001 0C11.8 0 14 2.2 14 4.9C14 7.6 11.8 9.8 9.10001 9.8ZM9.10001 1.6C7.30001 1.6 5.80001 3.1 5.80001 4.9C5.80001 6.7 7.30001 8.2 9.10001 8.2C10.9 8.2 12.4 6.7 12.4 4.9C12.4 3.1 11 1.6 9.10001 1.6Z" fill="#1D2123"/>
</svg>
